<svg width="2058" height="643" viewBox="0 0 2058 643" fill="none" xmlns="http://www.w3.org/2000/svg">
<g clip-path="url(#clip0_6_12)">
<path d="M298.5 116.858V116.855H298.726H298.968H299.21H299.451H299.693H299.935H300.177H300.419H300.661H300.903H301.145H301.386H301.628H301.87H302.112H302.354H302.595H302.837H303.079H303.321H303.563H303.805H304.046H304.288H304.53H304.772H305.013H305.255H305.497H305.739H305.98H306.222H306.464H306.706H306.948H307.189H307.431H307.673H307.914H308.156H308.398H308.64H308.881H309.123H309.365H309.606H309.848H310.09H310.331H310.573H310.815H311.057H311.298H311.54H311.782H312.023H312.265H312.507H312.748H312.99H313.232H313.473H313.715H313.956H314.198H314.44H314.681H314.923H315.165H315.406H315.648H315.889H316.131H316.373H316.614H316.856H317.098H317.339H317.581H317.822H318.064H318.306H318.547H318.789H319.03H319.272H319.513H319.755H319.997H320.238H320.48H320.721H320.963H321.204H321.446H321.688H321.929H322.171H322.412H322.654H322.895H323.137H323.379H323.62H323.862H324.103H324.345H324.586H324.828H325.069H325.311H325.552H325.794H326.036H326.277H326.519H326.76H327.002H327.243H327.485H327.726H327.968H328.209H328.451H328.692H328.934H329.175H329.417H329.659H329.9H330.142H330.383H330.625H330.866H331.108H331.349H331.591H331.832H332.074H332.315H332.557H332.798H333.04H333.281H333.523H333.765H334.006H334.248H334.489H334.731H334.972H335.214H335.455H335.697H335.938H336.18H336.421H336.663H336.904H337.146H337.387H337.629H337.871H338.112H338.354H338.595H338.837H339.078H339.32H339.561H339.803H340.044H340.286H340.527H340.769H341.011H341.252H341.494H341.735H341.977H342.218H342.46H342.701H342.943H343.185H343.426H343.668H343.909H344.151H344.392H344.634H344.876H345.117H345.359H345.6H345.842H346.083H346.325H346.567H346.808H347.05H347.291H347.533H347.775H348.016H348.258H348.499H348.741H348.983H349.224H349.466H349.708H349.949H350.191H350.432H350.674H350.916H351.157H351.399H351.641H351.882H352.124H352.366H352.607H352.849H353.091H353.332H353.574H353.816H354.057H354.299H354.541H354.782H355.024H355.266H355.507H355.749H355.991H356.233H356.474H356.716H356.958H357.199H357.441H357.683H357.925H358.166H358.408H358.65H358.892H359.133H359.375H359.617H359.859H360.1H360.342H360.584H360.826H361.068H361.309H361.551H361.793H362.035H362.277H362.518H362.76H363.002H363.244H363.486H363.728H363.969H364.211H364.453H364.695H364.937H365.179H365.421H365.662H365.904H366.146H366.388H366.63H366.872H367.114H367.356H367.598H367.84H368.082H368.324H368.565H368.807H369.049H369.291H369.533H369.775H370.017H370.259H370.501H370.743H370.985H371.227H371.469H371.711H371.953H372.195H372.437H372.68H372.922H373.164H373.406H373.648H373.89H374.132H374.374H374.616H374.858H375.1H375.342H375.585H375.827H376.069H376.311H376.553H376.795H377.038H377.28H377.522H377.764H378.006H378.248H378.491H378.733H378.975H379.217H379.46H379.702H379.944H380.186H380.429H380.671H380.913H381.156H381.398H381.64H381.882H382.125H382.367H382.609H382.852H383.094H383.337H383.579H383.821H384.064H384.306H384.548H384.791H385.033H385.276H385.518H385.761H386.003H386.246H386.488H386.73H386.973H387.215H387.458H387.701H387.943H388.186H388.428H388.671H388.913H389.156H389.398H389.641H389.884H390.126H390.369H390.611H390.854H391.097H391.339H391.582H391.825H392.067H392.31H392.553H392.795H393.038H393.281H393.524H393.766H394.009H394.252H394.495H394.737H394.98H395.223H395.466H395.709H395.951H396.194H396.437H396.68H396.923H397.166H397.409H397.652H397.894H398.137H398.38H398.623H398.866H399.109H399.352H399.595H399.838H400.081H400.324H400.567H400.81H401.053H401.296H401.539H401.783H402.026H402.269H402.512H402.755H402.998H403.241H403.484H403.728H403.971H404.214H404.457H404.7H404.944H405.187H405.43H405.673H405.917H406.16H406.403H406.646H406.89H407.133H407.376H407.62H407.863H408.107H408.35H408.593H408.837H409.08H409.324H409.567H409.811H410.054H410.298H410.541H410.785H411.028H411.272H411.515H411.759H412.002H412.246H412.489H412.733H412.977H413.22H413.464H413.708H413.951H414.195H414.439H414.682H414.926H415.17H415.414H415.657H415.901H416.145H416.389H416.633H416.876H417.12H417.364H417.608H417.852H418.096H418.34H418.584H418.828H419.072H419.315H419.559H419.803H420.047H420.292H420.536H420.78H421.024H421.268H421.5V116.856V116.866V116.876V116.886V116.897V116.907V116.917V116.927V116.938V116.948V116.958V116.968V116.979V116.989V116.999V117.009V117.02V117.03V117.04V117.05V117.061V117.071V117.081V117.091V117.101V117.112V117.122V117.132V117.142V117.153V117.163V117.173V117.183V117.194V117.204V117.214V117.224V117.235V117.245V117.255V117.265V117.276V117.286V117.296V117.306V117.317V117.327V117.337V117.347V117.358V117.368V117.378V117.388V117.399V117.409V117.419V117.43V117.44V117.45V117.46V117.471V117.481V117.491V117.501V117.512V117.522V117.532V117.542V117.553V117.563V117.573V117.583V117.594V117.604V117.614V117.625V117.635V117.645V117.655V117.666V117.676V117.686V117.696V117.707V117.717V117.727V117.738V117.748V117.758V117.768V117.779V117.789V117.799V117.809V117.82V117.83V117.84V117.851V117.861V117.871V117.881V117.892V117.902V117.912V117.923V117.933V117.943V117.953V117.964V117.974V117.984V117.995V118.005V118.015V118.025V118.036V118.046V118.056V118.067V118.077V118.087V118.097V118.108V118.118V118.128V118.139V118.149V118.159V118.169V118.18V118.19V118.2V118.211V118.221V118.231V118.241V118.252V118.262V118.272V118.283V118.293V118.303V118.314V118.324V118.334V118.344V118.355V118.365V118.375V118.386V118.396V118.406V118.417V118.427V118.437V118.447V118.458V118.468V118.478V118.489V118.499V118.509V118.52V118.53V118.54V118.551V118.561V118.571V118.581V118.592V118.602V118.612V118.623V118.633V118.643V118.654V118.664V118.674V118.685V118.695V118.705V118.716V118.726V118.736V118.746V118.757V118.767V118.777V118.788V118.798V118.808V118.819V118.829V118.839V118.85V118.86V118.87V118.881V118.891V118.901V118.912V118.922V118.932V118.942V118.953V118.963V118.973V118.984V118.994V119.004V119.015V119.025V119.035V119.046V119.056V119.066V119.077V119.087V119.097V119.108V119.118V119.128V119.139V119.149V119.159V119.17V119.18V119.19V119.201V119.211V119.221V119.232V119.242V119.252V119.263V119.273V119.283V119.294V119.304V119.314V119.325V119.335V119.345V119.356V119.366V119.376V119.387V119.397V119.407V119.418V119.428V119.438V119.449V119.459V119.469V119.48V119.49V119.5V119.511V119.521V119.531V119.542V119.552V119.562V119.573V119.583V119.593V119.604V119.614V119.624V119.635V119.645V119.655V119.666V119.676V119.686V119.697V119.707V119.717V119.728V119.738V119.748V119.759V119.769V119.779V119.79V119.8V119.81V119.821V119.831V119.841V119.852V119.862V119.872V119.883V119.893V119.904V119.914V119.924V119.935V119.945V119.955V119.966V119.976V119.986V119.997V120.007V120.017V120.028V120.038V120.048V120.059V120.069V120.079V120.09V120.1V120.11V120.121V120.131V120.142V120.152V120.162V120.173V120.183V120.193V120.204V120.214V120.224V120.235V120.245V120.255V120.266V120.276V120.286V120.297V120.307V120.318V120.328V120.338V120.349V120.359V120.369V120.38V120.39V120.4V120.411V120.421V120.431V120.442V120.452V120.462V120.473V120.483V120.494V120.504V120.514V120.525V120.535V120.545V120.556V120.566V120.576V120.587V120.597V120.607V120.618V120.628V120.639V120.649V120.659V120.67V120.68V120.69V120.701V120.711V120.721V120.732V120.742V120.752V120.763V120.773V120.784V120.794V120.804V120.815V120.825V120.835V120.846V120.856V120.866V120.877V120.887V120.897V120.908V120.918V120.929V120.939V120.949V120.96V120.97V120.98V120.991V121.001V121.011V121.022V121.032V121.043V121.053V121.063V121.074V121.084V121.094V121.105V121.115V121.125V121.136V121.146V121.156V121.167V121.177V121.188V121.198V121.208V121.219V121.229V121.239V121.25V121.26V121.27V121.281V121.291V121.302V121.312V121.322V121.333V121.343V121.353V121.364V121.374V121.384V121.395V121.405V121.416V121.426V121.436V121.447V121.457V121.467V121.478V121.488V121.498V121.509V121.519V121.53V121.54V121.55V121.561V121.571V121.581V121.592V121.602V121.612V121.623V121.633C421.5 142.779 421.52 163.925 421.54 185.071C421.591 239.911 421.642 294.749 421.348 349.586C421.222 373.152 418.739 396.585 410.571 418.99C404.27 436.274 395.738 452.162 383.707 466.264C369.428 483.003 352.939 496.927 332.724 505.242C319.338 510.747 304.984 514.376 290.715 517.231C279.069 519.56 266.954 519.978 254.967 520.38L253.4 520.433C238.897 520.921 224.337 521.411 209.951 520.27C208.883 520.185 207.815 520.101 206.747 520.017C186.973 518.458 167.208 516.901 147.901 511.69C128.891 506.559 111.805 498.266 96.7191 485.603C80.1606 471.706 65.8489 455.887 57.4449 435.999C52.4335 424.141 49.1236 411.511 45.8256 398.927C45.4126 397.351 44.9998 395.776 44.5839 394.203C40.3327 378.127 40.3857 361.619 40.4389 345.037C40.443 343.761 40.4471 342.484 40.4492 341.207C40.5102 304.797 40.5229 268.12 40.5203 240.546C40.5191 226.759 40.514 215.247 40.5092 207.182C40.5068 203.15 40.5045 199.979 40.5028 197.817L40.5008 195.347L40.5005 195H163.5V195.716V199.208L163.5 212.076L163.5 254.743L163.5 354.991C163.085 367.59 163.82 379.537 168.835 390.957C176.237 407.817 188.408 419.318 206.18 424.555C226.148 430.439 245.673 429.66 264.762 420.632C281.785 412.581 291.383 398.785 295.326 381.051C297.278 372.273 298.341 363.113 298.368 354.118C298.545 294.555 298.528 234.99 298.51 175.426C298.505 157.671 298.5 139.917 298.5 122.162V122.151V122.141V122.13V122.119V122.109V122.098V122.087V122.077V122.066V122.055V122.045V122.034V122.023V122.013V122.002V121.991V121.981V121.97V121.959V121.949V121.938V121.928V121.917V121.906V121.896V121.885V121.874V121.864V121.853V121.842V121.832V121.821V121.81V121.8V121.789V121.778V121.768V121.757V121.746V121.736V121.725V121.714V121.704V121.693V121.682V121.672V121.661V121.65V121.64V121.629V121.618V121.607V121.597V121.586V121.575V121.565V121.554V121.543V121.533V121.522V121.511V121.501V121.49V121.479V121.469V121.458V121.447V121.437V121.426V121.415V121.404V121.394V121.383V121.372V121.362V121.351V121.34V121.33V121.319V121.308V121.297V121.287V121.276V121.265V121.255V121.244V121.233V121.222V121.212V121.201V121.19V121.18V121.169V121.158V121.147V121.137V121.126V121.115V121.105V121.094V121.083V121.072V121.062V121.051V121.04V121.029V121.019V121.008V120.997V120.986V120.976V120.965V120.954V120.943V120.933V120.922V120.911V120.9V120.89V120.879V120.868V120.857V120.846V120.836V120.825V120.814V120.803V120.793V120.782V120.771V120.76V120.749V120.739V120.728V120.717V120.706V120.695V120.685V120.674V120.663V120.652V120.641V120.631V120.62V120.609V120.598V120.587V120.576V120.566V120.555V120.544V120.533V120.522V120.511V120.501V120.49V120.479V120.468V120.457V120.446V120.435V120.425V120.414V120.403V120.392V120.381V120.37V120.359V120.349V120.338V120.327V120.316V120.305V120.294V120.283V120.272V120.261V120.25V120.24V120.229V120.218V120.207V120.196V120.185V120.174V120.163V120.152V120.141V120.13V120.119V120.108V120.098V120.087V120.076V120.065V120.054V120.043V120.032V120.021V120.01V119.999V119.988V119.977V119.966V119.955V119.944V119.933V119.922V119.911V119.9V119.889V119.878V119.867V119.856V119.845V119.834V119.823V119.812V119.801V119.79V119.779V119.768V119.757V119.746V119.735V119.724V119.713V119.701V119.69V119.679V119.668V119.657V119.646V119.635V119.624V119.613V119.602V119.591V119.58V119.568V119.557V119.546V119.535V119.524V119.513V119.502V119.491V119.479V119.468V119.457V119.446V119.435V119.424V119.413V119.401V119.39V119.379V119.368V119.357V119.346V119.334V119.323V119.312V119.301V119.29V119.278V119.267V119.256V119.245V119.233V119.222V119.211V119.2V119.189V119.177V119.166V119.155V119.143V119.132V119.121V119.11V119.098V119.087V119.076V119.065V119.053V119.042V119.031V119.019V119.008V118.997V118.985V118.974V118.963V118.951V118.94V118.929V118.917V118.906V118.895V118.883V118.872V118.861V118.849V118.838V118.826V118.815V118.804V118.792V118.781V118.769V118.758V118.747V118.735V118.724V118.712V118.701V118.689V118.678V118.666V118.655V118.644V118.632V118.621V118.609V118.598V118.586V118.575V118.563V118.552V118.54V118.529V118.517V118.506V118.494V118.482V118.471V118.459V118.448V118.436V118.425V118.413V118.402V118.39V118.378V118.367V118.355V118.344V118.332V118.32V118.309V118.297V118.285V118.274V118.262V118.251V118.239V118.227V118.216V118.204V118.192V118.181V118.169V118.157V118.145V118.134V118.122V118.11V118.099V118.087V118.075V118.063V118.052V118.04V118.028V118.016V118.005V117.993V117.981V117.969V117.958V117.946V117.934V117.922V117.91V117.898V117.887V117.875V117.863V117.851V117.839V117.827V117.816V117.804V117.792V117.78V117.768V117.756V117.744V117.732V117.72V117.708V117.697V117.685V117.673V117.661V117.649V117.637V117.625V117.613V117.601V117.589V117.577V117.565V117.553V117.541V117.529V117.517V117.505V117.493V117.481V117.469V117.457V117.445V117.433V117.42V117.408V117.396V117.384V117.372V117.36V117.348V117.336V117.324V117.311V117.299V117.287V117.275V117.263V117.251V117.239V117.226V117.214V117.202V117.19V117.178V117.165V117.153V117.141V117.129V117.116V117.104V117.092V117.08V117.067V117.055V117.043V117.03V117.018V117.006V116.994V116.981V116.969V116.957V116.944V116.932V116.919V116.907V116.895V116.882V116.87V116.858Z" fill="#FFED00" stroke="#F5F5F5"/>
<path d="M1269.05 511.01C1251.94 502.99 1240.41 488.893 1227.12 474.759C1227.12 488.994 1227.12 501.705 1227.12 514.705C1191.92 514.705 1157.21 514.705 1122.25 514.705C1122.25 381.958 1122.25 249.375 1122.25 116.395C1159.54 116.395 1196.92 116.395 1234.96 116.395C1234.96 161.073 1234.96 205.896 1234.96 251.583C1240.68 246.951 1245.37 242.654 1250.55 239.059C1265.51 228.664 1281.88 221.858 1300.21 219.93C1320.91 217.753 1341.2 218.537 1360.94 225.904C1374.14 230.827 1385.6 238.273 1396.21 247.523C1407.79 257.613 1416.76 269.591 1423.44 283.152C1430.51 297.526 1435.4 312.814 1436.91 328.855C1438.35 344.107 1440.16 359.464 1439.74 374.719C1439.04 400.793 1434.61 426.318 1423.95 450.519C1416.2 468.104 1405.72 483.664 1391.18 496.134C1377.62 507.778 1361.85 515.664 1344.16 518.892C1335.15 520.536 1325.91 521.993 1316.81 521.783C1300.43 521.404 1284.29 518.753 1269.05 511.01ZM1234 379.226C1234.33 381.159 1234.84 383.08 1234.97 385.027C1235.74 396.555 1238.37 407.475 1244.18 417.643C1251.55 430.523 1269.09 441.887 1287.66 439.137C1305.92 436.433 1317.07 425.605 1322.86 409.179C1328.77 392.451 1329.91 375.044 1328.23 357.243C1327.17 346.021 1325.07 335.393 1319.99 325.368C1314.7 314.94 1306.36 307.215 1295.35 304.426C1268.02 297.503 1245.39 313.623 1237.98 339.137C1234.25 351.957 1233.64 365.058 1234 379.226Z" fill="#FFED00"/>
<path d="M1963.05 510.048C1948.37 515.464 1933.66 518.969 1918.41 519.992C1907.55 520.721 1896.65 522.187 1885.82 521.835C1857.2 520.905 1829.17 516.522 1803.37 503.037C1784.53 493.185 1768.67 479.846 1755.33 463.09C1740.15 444.031 1731.19 422.425 1727.25 398.811C1724.42 381.919 1724.24 364.825 1726.76 347.628C1729.26 330.65 1733.46 314.345 1741.45 299.224C1754.71 274.096 1773.7 254.359 1798.43 240.144C1815.93 230.09 1834.82 223.673 1854.59 221.338C1872.78 219.191 1891.32 218.6 1909.63 219.301C1929.03 220.043 1948.19 223.875 1966.45 231.011C1982.58 237.312 1997.17 246.004 2010.23 257.553C2023.72 269.478 2034.24 283.482 2042.06 299.513C2049.77 315.307 2055.06 331.912 2055.96 349.617C2056.53 360.87 2057.6 372.211 2056.82 383.399C2054.77 412.65 2045.7 439.47 2027.59 463.063C2014.31 480.351 1997.81 493.466 1978.75 503.566C1973.88 506.147 1968.56 507.881 1963.05 510.048ZM1843.08 331.74C1841.05 343.12 1837.64 354.468 1837.37 365.889C1837.08 378.393 1838.47 391.244 1841.27 403.451C1847.06 428.67 1868.18 448.918 1898.33 445.05C1912.74 443.202 1923.81 436.075 1932.07 424.496C1939.87 413.558 1942.77 400.942 1944.09 387.736C1945.71 371.551 1945.73 355.508 1941.98 339.606C1938.52 324.982 1931.62 312.481 1918.83 303.996C1890.88 285.459 1854.71 299.334 1843.08 331.74Z" fill="#FFED00"/>
<path d="M1048.26 450.228C1027.2 484.241 997.1 505.163 958.977 514.997C944.643 518.695 930.072 520.228 915.282 521.205C887.227 523.057 859.945 519.835 833.435 510.873C816.61 505.185 801.558 496.163 787.901 484.575C771.435 470.603 758.891 453.923 749.768 434.453C744.323 422.832 740.861 410.61 739.16 398.017C737.752 387.587 736.87 376.958 737.147 366.453C738.037 332.726 747.314 301.835 769.127 275.256C787.21 253.222 809.578 237.452 836.462 228.391C850.057 223.809 864.103 220.484 878.59 220.021C892.684 219.57 906.846 218.345 920.869 219.217C946.094 220.785 970.633 225.964 993.378 237.748C1018.06 250.537 1037.12 269.13 1050.69 293.326C1060.72 311.208 1066.1 330.443 1068.13 350.885C1070.79 377.663 1068.18 403.69 1058.84 428.889C1056.13 436.185 1052 442.95 1048.26 450.228ZM941.499 313.999C937.955 310.656 934.772 306.791 930.807 304.059C908.944 288.993 877.813 294.677 861.998 317.946C852.419 332.038 850.041 348.15 849.118 364.553C848.739 371.277 849.746 378.072 849.982 384.839C850.357 395.596 852.838 405.938 857.357 415.577C865.568 433.094 884.885 448.983 910.498 445.075C924.217 442.982 934.922 436.533 943.21 425.495C953.317 412.035 955.851 396.268 956.832 380.235C957.416 370.696 956.765 361.016 955.896 351.47C954.667 337.974 950.643 325.331 941.499 313.999Z" fill="#FFED00"/>
<path d="M1515 386C1515 359.871 1515 334.241 1515 308.086C1501.28 308.086 1487.89 308.086 1474.25 308.086C1474.25 280.631 1474.25 253.7 1474.25 226.242C1487.56 226.242 1500.95 226.242 1514.75 226.242C1514.85 224.14 1514.99 222.54 1514.99 220.94C1515.01 206.112 1515.06 191.283 1514.95 176.455C1514.93 173.73 1515.56 172.187 1518.23 170.834C1544.36 157.628 1570.39 144.236 1596.43 130.867C1604.86 126.537 1613.25 122.114 1621.67 117.752C1623.08 117.022 1624.54 116.389 1626.67 115.38C1626.67 152.514 1626.67 188.866 1626.67 225.741C1647.21 225.741 1667.26 225.741 1687.66 225.741C1687.66 253.311 1687.66 280.359 1687.66 307.934C1667.6 307.934 1647.54 307.934 1627 307.934C1627 309.903 1627 311.354 1627 312.805C1627 348.627 1626.81 384.449 1627.11 420.268C1627.2 431.763 1630.49 437.713 1639.82 441.281C1646.48 443.831 1653.36 442.775 1660.07 441.409C1666.75 440.047 1673.38 438.335 1679.94 436.467C1683 435.596 1683.77 436.697 1684.02 439.425C1685.3 453.487 1686.58 467.552 1688.03 481.597C1689.1 491.857 1690.43 502.088 1691.76 513.24C1678.92 515.16 1666.1 517.547 1653.17 518.885C1638.43 520.411 1623.58 521.928 1608.8 521.744C1593.47 521.555 1577.94 520.565 1563.2 515.561C1543.77 508.968 1530.5 495.664 1523.06 476.651C1518.62 465.316 1516.42 453.417 1516.06 441.28C1515.51 423.026 1515.33 404.76 1515 386Z" fill="#FFED00"/>
<path d="M692.041 307.096C690.976 309.664 689.951 311.847 689.216 313.413C680.991 311.131 673.422 308.756 665.719 306.95C648.008 302.797 631.574 310.516 622.749 326.612C616.216 338.527 612.536 351.344 611.093 364.715C609.646 378.129 608.38 391.616 608.12 405.093C607.432 440.685 607.333 476.289 606.994 511.888C606.986 512.703 606.914 513.518 606.855 514.663C569.672 514.663 532.619 514.663 495.282 514.663C495.282 418.681 495.282 322.748 495.282 226.407C529.859 226.407 564.578 226.407 599.826 226.407C599.826 239.932 599.826 253.632 599.826 267.332C600.25 267.482 600.674 267.632 601.097 267.782C603.468 263.663 605.761 259.497 608.222 255.433C615.463 243.473 623.898 232.33 636.709 226.145C644.039 222.606 652.321 220.104 660.399 219.237C680.853 217.042 699.973 222.447 718.296 231.508C723.181 233.923 723.367 236.045 721.279 240.497C716.854 249.927 713.105 259.672 708.905 269.212C703.385 281.75 697.696 294.215 692.041 307.096Z" fill="#FFED00"/>
<rect x="105" y="78" width="100" height="100" fill="#FFED00"/>
<rect y="48" width="80" height="80" fill="#FFED00"/>
<rect x="105" width="60" height="60" fill="#FFED00"/>
<rect y="540" width="2057" height="103" fill="#6E6E6E"/>
</g>
<defs>
<clipPath id="clip0_6_12">
<rect width="2058" height="643" fill="white"/>
</clipPath>
</defs>
</svg>
