<svg width="779" height="134" viewBox="0 0 779 134" fill="none" xmlns="http://www.w3.org/2000/svg">
<path d="M43.7734 134C34.9844 134 27.3672 132.34 20.9219 129.02C14.4766 125.634 9.46354 121.109 5.88281 115.445C2.36719 109.781 0.609375 103.564 0.609375 96.793V37.418C0.609375 30.582 2.36719 24.3646 5.88281 18.7656C9.46354 13.1016 14.4766 8.60938 20.9219 5.28906C27.3672 1.90365 34.9844 0.210938 43.7734 0.210938H73.8516C82.6406 0.210938 90.2578 1.90365 96.7031 5.28906C103.214 8.60938 108.227 13.1016 111.742 18.7656C115.258 24.3646 117.016 30.582 117.016 37.418V96.793C117.016 103.564 115.258 109.781 111.742 115.445C108.227 121.109 103.214 125.634 96.7031 129.02C90.2578 132.34 82.6406 134 73.8516 134H43.7734ZM49.6328 89.7617H75.8047L85.7656 88.5898L92.0156 82.4375L93.3828 74.0391V9H83.0312V72.9648L81.5664 78.4336L75.2188 79.4102H50.2188L43.7734 78.4336L42.4062 72.5742V9H32.25V74.0391L33.4219 82.4375L39.7695 88.5898L49.6328 89.7617ZM175.398 134C166.609 134 158.992 132.34 152.547 129.02C146.102 125.634 141.089 121.109 137.508 115.445C133.992 109.781 132.234 103.564 132.234 96.793V37.418C132.234 30.582 133.992 24.3646 137.508 18.7656C141.089 13.1016 146.102 8.60938 152.547 5.28906C158.992 1.90365 166.609 0.210938 175.398 0.210938H205.477C214.266 0.210938 221.883 1.90365 228.328 5.28906C234.839 8.60938 239.852 13.1016 243.367 18.7656C246.883 24.3646 248.641 30.582 248.641 37.418V96.793C248.641 103.564 246.883 109.781 243.367 115.445C239.852 121.109 234.839 125.634 228.328 129.02C221.883 132.34 214.266 134 205.477 134H175.398ZM166.219 89.7617H176.668V57.2422H202.059L208.992 60.3672L210.457 65.6406V89.7617H220.809V64.5664L217.391 55.582L206.258 51.5781L217 46.4023L220.027 37.6133V26.7734L218.855 18.5703L212.41 10.3672L202.645 9H166.219V89.7617ZM176.668 46.793V19.3516H202.059L208.992 22.3789L209.676 28.043V38.3945L208.211 43.7656L202.059 46.793H176.668ZM307.023 134C298.234 134 290.617 132.34 284.172 129.02C277.727 125.634 272.714 121.109 269.133 115.445C265.617 109.781 263.859 103.564 263.859 96.793V37.418C263.859 30.582 265.617 24.3646 269.133 18.7656C272.714 13.1016 277.727 8.60938 284.172 5.28906C290.617 1.90365 298.234 0.210938 307.023 0.210938H337.102C345.891 0.210938 353.508 1.90365 359.953 5.28906C366.464 8.60938 371.477 13.1016 374.992 18.7656C378.508 24.3646 380.266 30.582 380.266 37.418V96.793C380.266 103.564 378.508 109.781 374.992 115.445C371.477 121.109 366.464 125.634 359.953 129.02C353.508 132.34 345.891 134 337.102 134H307.023ZM313.469 89.7617H339.641L349.699 88.5898L355.852 82.4375L357.219 74.0391V24.8203L355.852 16.6172L349.699 10.3672L339.641 9H313.469L303.508 10.3672L297.258 16.6172L296.086 24.8203V74.0391L297.258 82.4375L303.703 88.5898L313.469 89.7617ZM314.055 79.4102L307.707 78.4336L306.242 72.5742V25.7969L307.219 20.4258L314.055 19.3516H339.055L345.891 20.4258L346.867 26.1875V72.9648L345.5 78.4336L339.055 79.4102H314.055ZM438.648 134C429.859 134 422.242 132.34 415.797 129.02C409.352 125.634 404.339 121.109 400.758 115.445C397.242 109.781 395.484 103.564 395.484 96.793V37.418C395.484 30.582 397.242 24.3646 400.758 18.7656C404.339 13.1016 409.352 8.60938 415.797 5.28906C422.242 1.90365 429.859 0.210938 438.648 0.210938H468.727C477.516 0.210938 485.133 1.90365 491.578 5.28906C498.089 8.60938 503.102 13.1016 506.617 18.7656C510.133 24.3646 511.891 30.582 511.891 37.418V96.793C511.891 103.564 510.133 109.781 506.617 115.445C503.102 121.109 498.089 125.634 491.578 129.02C485.133 132.34 477.516 134 468.727 134H438.648ZM425.855 89.7617H466.871L476.93 88.5898L483.082 82.4375L484.449 74.2344V58.8047L482.594 51.5781L474.781 48.1602L482.594 45.2305L484.449 37.8086V24.8203L483.082 16.6172L476.93 10.3672L466.871 9H425.855V89.7617ZM436.305 43.375V19.3516H466.285L473.121 20.4258L472.73 26.1875L474.098 37.0273L472.73 42.2031L466.285 43.375H436.305ZM436.305 79.4102V53.6289H466.48L473.121 54.4102L474.098 60.1719V73.1602L472.73 78.4336L466.285 79.4102H436.305ZM570.273 134C561.484 134 553.867 132.34 547.422 129.02C540.977 125.634 535.964 121.109 532.383 115.445C528.867 109.781 527.109 103.564 527.109 96.793V37.418C527.109 30.582 528.867 24.3646 532.383 18.7656C535.964 13.1016 540.977 8.60938 547.422 5.28906C553.867 1.90365 561.484 0.210938 570.273 0.210938H600.352C609.141 0.210938 616.758 1.90365 623.203 5.28906C629.714 8.60938 634.727 13.1016 638.242 18.7656C641.758 24.3646 643.516 30.582 643.516 37.418V96.793C643.516 103.564 641.758 109.781 638.242 115.445C634.727 121.109 629.714 125.634 623.203 129.02C616.758 132.34 609.141 134 600.352 134H570.273ZM585.508 89.7617H595.957V19.3516H618.906V9H562.461V19.3516H585.508V89.7617ZM701.898 134C693.109 134 685.492 132.34 679.047 129.02C672.602 125.634 667.589 121.109 664.008 115.445C660.492 109.781 658.734 103.564 658.734 96.793V37.418C658.734 30.582 660.492 24.3646 664.008 18.7656C667.589 13.1016 672.602 8.60938 679.047 5.28906C685.492 1.90365 693.109 0.210938 701.898 0.210938H731.977C740.766 0.210938 748.383 1.90365 754.828 5.28906C761.339 8.60938 766.352 13.1016 769.867 18.7656C773.383 24.3646 775.141 30.582 775.141 37.418V96.793C775.141 103.564 773.383 109.781 769.867 115.445C766.352 121.109 761.339 125.634 754.828 129.02C748.383 132.34 740.766 134 731.977 134H701.898ZM708.344 89.7617H734.516L744.574 88.5898L750.727 82.4375L752.094 74.0391V24.8203L750.727 16.6172L744.574 10.3672L734.516 9H708.344L698.383 10.3672L692.133 16.6172L690.961 24.8203V74.0391L692.133 82.4375L698.578 88.5898L708.344 89.7617ZM708.93 79.4102L702.582 78.4336L701.117 72.5742V25.7969L702.094 20.4258L708.93 19.3516H733.93L740.766 20.4258L741.742 26.1875V72.9648L740.375 78.4336L733.93 79.4102H708.93Z" fill="#FFEB09"/>
<path d="M43.7734 134C34.9844 134 27.3672 132.34 20.9219 129.02C14.4766 125.634 9.46354 121.109 5.88281 115.445C2.36719 109.781 0.609375 103.564 0.609375 96.793V37.418C0.609375 30.582 2.36719 24.3646 5.88281 18.7656C9.46354 13.1016 14.4766 8.60938 20.9219 5.28906C27.3672 1.90365 34.9844 0.210938 43.7734 0.210938H73.8516C82.6406 0.210938 90.2578 1.90365 96.7031 5.28906C103.214 8.60938 108.227 13.1016 111.742 18.7656C115.258 24.3646 117.016 30.582 117.016 37.418V96.793C117.016 103.564 115.258 109.781 111.742 115.445C108.227 121.109 103.214 125.634 96.7031 129.02C90.2578 132.34 82.6406 134 73.8516 134H43.7734ZM49.6328 89.7617H75.8047L85.7656 88.5898L92.0156 82.4375L93.3828 74.0391V9H83.0312V72.9648L81.5664 78.4336L75.2188 79.4102H50.2188L43.7734 78.4336L42.4062 72.5742V9H32.25V74.0391L33.4219 82.4375L39.7695 88.5898L49.6328 89.7617ZM175.398 134C166.609 134 158.992 132.34 152.547 129.02C146.102 125.634 141.089 121.109 137.508 115.445C133.992 109.781 132.234 103.564 132.234 96.793V37.418C132.234 30.582 133.992 24.3646 137.508 18.7656C141.089 13.1016 146.102 8.60938 152.547 5.28906C158.992 1.90365 166.609 0.210938 175.398 0.210938H205.477C214.266 0.210938 221.883 1.90365 228.328 5.28906C234.839 8.60938 239.852 13.1016 243.367 18.7656C246.883 24.3646 248.641 30.582 248.641 37.418V96.793C248.641 103.564 246.883 109.781 243.367 115.445C239.852 121.109 234.839 125.634 228.328 129.02C221.883 132.34 214.266 134 205.477 134H175.398ZM166.219 89.7617H176.668V57.2422H202.059L208.992 60.3672L210.457 65.6406V89.7617H220.809V64.5664L217.391 55.582L206.258 51.5781L217 46.4023L220.027 37.6133V26.7734L218.855 18.5703L212.41 10.3672L202.645 9H166.219V89.7617ZM176.668 46.793V19.3516H202.059L208.992 22.3789L209.676 28.043V38.3945L208.211 43.7656L202.059 46.793H176.668ZM307.023 134C298.234 134 290.617 132.34 284.172 129.02C277.727 125.634 272.714 121.109 269.133 115.445C265.617 109.781 263.859 103.564 263.859 96.793V37.418C263.859 30.582 265.617 24.3646 269.133 18.7656C272.714 13.1016 277.727 8.60938 284.172 5.28906C290.617 1.90365 298.234 0.210938 307.023 0.210938H337.102C345.891 0.210938 353.508 1.90365 359.953 5.28906C366.464 8.60938 371.477 13.1016 374.992 18.7656C378.508 24.3646 380.266 30.582 380.266 37.418V96.793C380.266 103.564 378.508 109.781 374.992 115.445C371.477 121.109 366.464 125.634 359.953 129.02C353.508 132.34 345.891 134 337.102 134H307.023ZM313.469 89.7617H339.641L349.699 88.5898L355.852 82.4375L357.219 74.0391V24.8203L355.852 16.6172L349.699 10.3672L339.641 9H313.469L303.508 10.3672L297.258 16.6172L296.086 24.8203V74.0391L297.258 82.4375L303.703 88.5898L313.469 89.7617ZM314.055 79.4102L307.707 78.4336L306.242 72.5742V25.7969L307.219 20.4258L314.055 19.3516H339.055L345.891 20.4258L346.867 26.1875V72.9648L345.5 78.4336L339.055 79.4102H314.055ZM438.648 134C429.859 134 422.242 132.34 415.797 129.02C409.352 125.634 404.339 121.109 400.758 115.445C397.242 109.781 395.484 103.564 395.484 96.793V37.418C395.484 30.582 397.242 24.3646 400.758 18.7656C404.339 13.1016 409.352 8.60938 415.797 5.28906C422.242 1.90365 429.859 0.210938 438.648 0.210938H468.727C477.516 0.210938 485.133 1.90365 491.578 5.28906C498.089 8.60938 503.102 13.1016 506.617 18.7656C510.133 24.3646 511.891 30.582 511.891 37.418V96.793C511.891 103.564 510.133 109.781 506.617 115.445C503.102 121.109 498.089 125.634 491.578 129.02C485.133 132.34 477.516 134 468.727 134H438.648ZM425.855 89.7617H466.871L476.93 88.5898L483.082 82.4375L484.449 74.2344V58.8047L482.594 51.5781L474.781 48.1602L482.594 45.2305L484.449 37.8086V24.8203L483.082 16.6172L476.93 10.3672L466.871 9H425.855V89.7617ZM436.305 43.375V19.3516H466.285L473.121 20.4258L472.73 26.1875L474.098 37.0273L472.73 42.2031L466.285 43.375H436.305ZM436.305 79.4102V53.6289H466.48L473.121 54.4102L474.098 60.1719V73.1602L472.73 78.4336L466.285 79.4102H436.305ZM570.273 134C561.484 134 553.867 132.34 547.422 129.02C540.977 125.634 535.964 121.109 532.383 115.445C528.867 109.781 527.109 103.564 527.109 96.793V37.418C527.109 30.582 528.867 24.3646 532.383 18.7656C535.964 13.1016 540.977 8.60938 547.422 5.28906C553.867 1.90365 561.484 0.210938 570.273 0.210938H600.352C609.141 0.210938 616.758 1.90365 623.203 5.28906C629.714 8.60938 634.727 13.1016 638.242 18.7656C641.758 24.3646 643.516 30.582 643.516 37.418V96.793C643.516 103.564 641.758 109.781 638.242 115.445C634.727 121.109 629.714 125.634 623.203 129.02C616.758 132.34 609.141 134 600.352 134H570.273ZM585.508 89.7617H595.957V19.3516H618.906V9H562.461V19.3516H585.508V89.7617ZM701.898 134C693.109 134 685.492 132.34 679.047 129.02C672.602 125.634 667.589 121.109 664.008 115.445C660.492 109.781 658.734 103.564 658.734 96.793V37.418C658.734 30.582 660.492 24.3646 664.008 18.7656C667.589 13.1016 672.602 8.60938 679.047 5.28906C685.492 1.90365 693.109 0.210938 701.898 0.210938H731.977C740.766 0.210938 748.383 1.90365 754.828 5.28906C761.339 8.60938 766.352 13.1016 769.867 18.7656C773.383 24.3646 775.141 30.582 775.141 37.418V96.793C775.141 103.564 773.383 109.781 769.867 115.445C766.352 121.109 761.339 125.634 754.828 129.02C748.383 132.34 740.766 134 731.977 134H701.898ZM708.344 89.7617H734.516L744.574 88.5898L750.727 82.4375L752.094 74.0391V24.8203L750.727 16.6172L744.574 10.3672L734.516 9H708.344L698.383 10.3672L692.133 16.6172L690.961 24.8203V74.0391L692.133 82.4375L698.578 88.5898L708.344 89.7617ZM708.93 79.4102L702.582 78.4336L701.117 72.5742V25.7969L702.094 20.4258L708.93 19.3516H733.93L740.766 20.4258L741.742 26.1875V72.9648L740.375 78.4336L733.93 79.4102H708.93Z" fill="#FFEB09"/>
</svg>
